# xmcd
#
# Track frame offsets: 
#        150
#        24339
#        42077
#        60501
#        78699
#        113215
#        137755
#        159213
#        182827
#        206699
#        225823
#
# Disc length: 3579 seconds
#
# Revision: 0
# Processed by: cddbd v1.5.1PL0 Copyright (c) Steve Scherf et al.
# Submitted via: ExactAudioCopy v0.95a5
#
DISCID=820df90b
DTITLE=Cold Shot - Stop The Madness
DYEAR=2003
DGENRE=Blues
TTITLE0=Reason For The Blues
TTITLE1=Born In Chicago
TTITLE2=It's Over
TTITLE3=Cold Shot
TTITLE4=Death Row
TTITLE5=The Way The Cards Fall
TTITLE6=Don't Turn Around
TTITLE7=Move On
TTITLE8=Texas Flood
TTITLE9=Stop The Madness
TTITLE10=Tin Pan Alley
EXTD=
EXTT0=
EXTT1=
EXTT2=
EXTT3=
EXTT4=
EXTT5=
EXTT6=
EXTT7=
EXTT8=
EXTT9=
EXTT10=
PLAYORDER=
